<mxfile host="65bd71144e">
    <diagram id="NiXAW_vnaJnxjfFE5wmp" name="Page-1">
        <mxGraphModel dx="-119" dy="403" grid="1" gridSize="10" guides="1" tooltips="1" connect="1" arrows="1" fold="1" page="1" pageScale="1" pageWidth="1100" pageHeight="850" math="0" shadow="0">
            <root>
                <mxCell id="0"/>
                <mxCell id="1" parent="0"/>
                <mxCell id="BVyFDoNeZoiz52lBJP7x-41" style="rounded=1;orthogonalLoop=1;jettySize=auto;html=1;entryX=0;entryY=0.5;entryDx=0;entryDy=0;endArrow=none;endFill=0;strokeColor=none;strokeWidth=18;fontSize=14;opacity=50;startArrow=none;startFill=0;" parent="1" target="BVyFDoNeZoiz52lBJP7x-2" edge="1">
                    <mxGeometry relative="1" as="geometry">
                        <mxPoint x="1383.566939754445" y="204.92101648389894" as="sourcePoint"/>
                    </mxGeometry>
                </mxCell>
                <mxCell id="BVyFDoNeZoiz52lBJP7x-112" value="" style="rounded=0;whiteSpace=wrap;html=1;shadow=0;strokeColor=#84C2B4;strokeWidth=2;fillColor=#7C7A7A;fontSize=14;align=left;" parent="1" vertex="1">
                    <mxGeometry x="1080.72" y="295.2051992225462" height="4.49" as="geometry"/>
                </mxCell>
                <mxCell id="BVyFDoNeZoiz52lBJP7x-233" value="" style="group" parent="1" vertex="1" connectable="0">
                    <mxGeometry x="1480" y="53" width="180" height="126" as="geometry"/>
                </mxCell>
                <mxCell id="BVyFDoNeZoiz52lBJP7x-52" value="" style="group;fillColor=#FCB558;" parent="BVyFDoNeZoiz52lBJP7x-233" vertex="1" connectable="0">
                    <mxGeometry y="26" width="180" height="100" as="geometry"/>
                </mxCell>
                <mxCell id="BVyFDoNeZoiz52lBJP7x-53" value="" style="rounded=0;whiteSpace=wrap;html=1;shadow=0;strokeColor=none;strokeWidth=1;fillColor=#FCB558;fontSize=14;align=left;" parent="BVyFDoNeZoiz52lBJP7x-52" vertex="1">
                    <mxGeometry width="180" height="100" as="geometry"/>
                </mxCell>
                <mxCell id="BVyFDoNeZoiz52lBJP7x-54" value="" style="group" parent="BVyFDoNeZoiz52lBJP7x-52" vertex="1" connectable="0">
                    <mxGeometry x="30" y="27" width="135" height="61.549999999999955" as="geometry"/>
                </mxCell>
                <mxCell id="BVyFDoNeZoiz52lBJP7x-55" value="" style="group" parent="BVyFDoNeZoiz52lBJP7x-54" vertex="1" connectable="0">
                    <mxGeometry x="75" y="1.5499999999999545" width="60" height="60" as="geometry"/>
                </mxCell>
                <mxCell id="BVyFDoNeZoiz52lBJP7x-56" value="" style="ellipse;whiteSpace=wrap;html=1;aspect=fixed;shadow=0;strokeColor=#2E3233;strokeWidth=1;fillColor=#2E3233;fontSize=14;align=left;" parent="BVyFDoNeZoiz52lBJP7x-55" vertex="1">
                    <mxGeometry y="-1.549999999999886" width="60" height="60" as="geometry"/>
                </mxCell>
                <mxCell id="BVyFDoNeZoiz52lBJP7x-57" value="" style="html=1;verticalLabelPosition=bottom;align=center;labelBackgroundColor=#ffffff;verticalAlign=top;strokeWidth=2;strokeColor=#2E3233;shadow=0;dashed=0;shape=mxgraph.ios7.icons.data;fillColor=#FCB558;fontSize=14;" parent="BVyFDoNeZoiz52lBJP7x-55" vertex="1">
                    <mxGeometry x="15" y="15" width="30" height="30" as="geometry"/>
                </mxCell>
                <mxCell id="BVyFDoNeZoiz52lBJP7x-58" value="" style="group" parent="BVyFDoNeZoiz52lBJP7x-54" vertex="1" connectable="0">
                    <mxGeometry x="-15" width="75" height="60" as="geometry"/>
                </mxCell>
                <mxCell id="BVyFDoNeZoiz52lBJP7x-59" value="" style="ellipse;whiteSpace=wrap;html=1;aspect=fixed;shadow=0;strokeColor=#2E3233;strokeWidth=1;fillColor=#2E3233;fontSize=14;align=left;" parent="BVyFDoNeZoiz52lBJP7x-58" vertex="1">
                    <mxGeometry width="60" height="60" as="geometry"/>
                </mxCell>
                <mxCell id="BVyFDoNeZoiz52lBJP7x-60" value="" style="group;fillColor=none;" parent="BVyFDoNeZoiz52lBJP7x-58" vertex="1" connectable="0">
                    <mxGeometry x="15" y="14" width="60" height="45.539999999999964" as="geometry"/>
                </mxCell>
                <mxCell id="BVyFDoNeZoiz52lBJP7x-61" value="" style="rounded=1;whiteSpace=wrap;html=1;shadow=0;strokeColor=none;strokeWidth=1;fillColor=#FCB558;fontSize=14;align=left;" parent="BVyFDoNeZoiz52lBJP7x-60" vertex="1">
                    <mxGeometry width="30" height="8.158323632130376" as="geometry"/>
                </mxCell>
                <mxCell id="BVyFDoNeZoiz52lBJP7x-62" value="" style="rounded=1;whiteSpace=wrap;html=1;shadow=0;strokeColor=#2E3233;strokeWidth=1;fillColor=#2E3233;fontSize=14;align=left;" parent="BVyFDoNeZoiz52lBJP7x-60" vertex="1">
                    <mxGeometry x="2.875" y="1.7450523864959249" width="1.5" height="5" as="geometry"/>
                </mxCell>
                <mxCell id="BVyFDoNeZoiz52lBJP7x-63" value="" style="rounded=1;whiteSpace=wrap;html=1;shadow=0;strokeColor=#2E3233;strokeWidth=1;fillColor=#2E3233;fontSize=14;align=left;" parent="BVyFDoNeZoiz52lBJP7x-60" vertex="1">
                    <mxGeometry x="7.625" y="1.7450523864959249" width="1.5" height="5" as="geometry"/>
                </mxCell>
                <mxCell id="BVyFDoNeZoiz52lBJP7x-64" value="" style="rounded=1;whiteSpace=wrap;html=1;shadow=0;strokeColor=#2E3233;strokeWidth=1;fillColor=#2E3233;fontSize=14;align=left;" parent="BVyFDoNeZoiz52lBJP7x-60" vertex="1">
                    <mxGeometry x="12.375" y="1.7450523864959249" width="1.5" height="5" as="geometry"/>
                </mxCell>
                <mxCell id="BVyFDoNeZoiz52lBJP7x-65" value="" style="rounded=1;whiteSpace=wrap;html=1;shadow=0;strokeColor=#2E3233;strokeWidth=1;fillColor=#2E3233;fontSize=14;align=left;" parent="BVyFDoNeZoiz52lBJP7x-60" vertex="1">
                    <mxGeometry x="16.9375" y="1.7450523864959249" width="1.5" height="5" as="geometry"/>
                </mxCell>
                <mxCell id="BVyFDoNeZoiz52lBJP7x-66" value="" style="ellipse;whiteSpace=wrap;html=1;aspect=fixed;shadow=0;strokeColor=#2E3233;strokeWidth=1;fillColor=#2E3233;fontSize=14;align=left;" parent="BVyFDoNeZoiz52lBJP7x-60" vertex="1">
                    <mxGeometry x="25" y="1.7450523864959249" width="2.5" height="2.5" as="geometry"/>
                </mxCell>
                <mxCell id="BVyFDoNeZoiz52lBJP7x-67" value="" style="rounded=1;whiteSpace=wrap;html=1;shadow=0;strokeColor=none;strokeWidth=1;fillColor=#FCB558;fontSize=14;align=left;" parent="BVyFDoNeZoiz52lBJP7x-60" vertex="1">
                    <mxGeometry y="11.92" width="30" height="8.16" as="geometry"/>
                </mxCell>
                <mxCell id="BVyFDoNeZoiz52lBJP7x-68" value="" style="rounded=1;whiteSpace=wrap;html=1;shadow=0;strokeColor=#2E3233;strokeWidth=1;fillColor=#2E3233;fontSize=14;align=left;" parent="BVyFDoNeZoiz52lBJP7x-60" vertex="1">
                    <mxGeometry x="2.875" y="13.66589057043072" width="1.5" height="5" as="geometry"/>
                </mxCell>
                <mxCell id="BVyFDoNeZoiz52lBJP7x-69" value="" style="rounded=1;whiteSpace=wrap;html=1;shadow=0;strokeColor=#2E3233;strokeWidth=1;fillColor=#2E3233;fontSize=14;align=left;" parent="BVyFDoNeZoiz52lBJP7x-60" vertex="1">
                    <mxGeometry x="7.625" y="13.66589057043072" width="1.5" height="5" as="geometry"/>
                </mxCell>
                <mxCell id="BVyFDoNeZoiz52lBJP7x-70" value="" style="rounded=1;whiteSpace=wrap;html=1;shadow=0;strokeColor=#2E3233;strokeWidth=1;fillColor=#2E3233;fontSize=14;align=left;" parent="BVyFDoNeZoiz52lBJP7x-60" vertex="1">
                    <mxGeometry x="12.375" y="13.66589057043072" width="1.5" height="5" as="geometry"/>
                </mxCell>
                <mxCell id="BVyFDoNeZoiz52lBJP7x-71" value="" style="rounded=1;whiteSpace=wrap;html=1;shadow=0;strokeColor=#2E3233;strokeWidth=1;fillColor=#2E3233;fontSize=14;align=left;" parent="BVyFDoNeZoiz52lBJP7x-60" vertex="1">
                    <mxGeometry x="16.9375" y="13.66589057043072" width="1.5" height="5" as="geometry"/>
                </mxCell>
                <mxCell id="BVyFDoNeZoiz52lBJP7x-72" value="" style="rounded=1;whiteSpace=wrap;html=1;shadow=0;strokeColor=none;strokeWidth=1;fillColor=#FCB558;fontSize=14;align=left;" parent="BVyFDoNeZoiz52lBJP7x-60" vertex="1">
                    <mxGeometry y="23.841676367869592" width="30" height="8.158323632130376" as="geometry"/>
                </mxCell>
                <mxCell id="BVyFDoNeZoiz52lBJP7x-73" value="" style="rounded=1;whiteSpace=wrap;html=1;shadow=0;strokeColor=#2E3233;strokeWidth=1;fillColor=#2E3233;fontSize=14;align=left;" parent="BVyFDoNeZoiz52lBJP7x-60" vertex="1">
                    <mxGeometry x="2.875" y="25.586728754365517" width="1.5" height="5" as="geometry"/>
                </mxCell>
                <mxCell id="BVyFDoNeZoiz52lBJP7x-74" value="" style="rounded=1;whiteSpace=wrap;html=1;shadow=0;strokeColor=#2E3233;strokeWidth=1;fillColor=#2E3233;fontSize=14;align=left;" parent="BVyFDoNeZoiz52lBJP7x-60" vertex="1">
                    <mxGeometry x="7.625" y="25.586728754365517" width="1.5" height="5" as="geometry"/>
                </mxCell>
                <mxCell id="BVyFDoNeZoiz52lBJP7x-75" value="" style="rounded=1;whiteSpace=wrap;html=1;shadow=0;strokeColor=#2E3233;strokeWidth=1;fillColor=#2E3233;fontSize=14;align=left;" parent="BVyFDoNeZoiz52lBJP7x-60" vertex="1">
                    <mxGeometry x="12.375" y="25.586728754365517" width="1.5" height="5" as="geometry"/>
                </mxCell>
                <mxCell id="BVyFDoNeZoiz52lBJP7x-76" value="" style="rounded=1;whiteSpace=wrap;html=1;shadow=0;strokeColor=#2E3233;strokeWidth=1;fillColor=#2E3233;fontSize=14;align=left;" parent="BVyFDoNeZoiz52lBJP7x-60" vertex="1">
                    <mxGeometry x="16.9375" y="25.586728754365517" width="1.5" height="5" as="geometry"/>
                </mxCell>
                <mxCell id="BVyFDoNeZoiz52lBJP7x-89" value="" style="rounded=0;whiteSpace=wrap;html=1;shadow=0;strokeColor=none;strokeWidth=1;fillColor=#2E3233;fontSize=14;align=left;" parent="BVyFDoNeZoiz52lBJP7x-54" vertex="1">
                    <mxGeometry x="42" y="24" width="38" height="12" as="geometry"/>
                </mxCell>
                <mxCell id="BVyFDoNeZoiz52lBJP7x-226" value="&lt;font style=&quot;font-size: 14px&quot;&gt;GHES Primary&lt;/font&gt;" style="text;html=1;strokeColor=none;fillColor=none;align=center;verticalAlign=middle;whiteSpace=wrap;rounded=0;fontColor=#2E3233;fontFamily=Verdana;fontStyle=1;fontSize=18;" parent="BVyFDoNeZoiz52lBJP7x-52" vertex="1">
                    <mxGeometry width="180" height="20" as="geometry"/>
                </mxCell>
                <mxCell id="BVyFDoNeZoiz52lBJP7x-228" value="&lt;font style=&quot;font-size: 14px&quot;&gt;AZ: A&lt;/font&gt;" style="text;html=1;strokeColor=none;fillColor=none;align=left;verticalAlign=middle;whiteSpace=wrap;rounded=0;fontColor=#FF9933;fontFamily=Verdana;fontStyle=1;fontSize=14;" parent="BVyFDoNeZoiz52lBJP7x-233" vertex="1">
                    <mxGeometry width="180" height="20" as="geometry"/>
                </mxCell>
                <mxCell id="BVyFDoNeZoiz52lBJP7x-232" value="" style="group" parent="1" vertex="1" connectable="0">
                    <mxGeometry x="1480" y="214" width="180" height="126" as="geometry"/>
                </mxCell>
                <mxCell id="BVyFDoNeZoiz52lBJP7x-200" value="" style="group;fillColor=#FFE599;" parent="BVyFDoNeZoiz52lBJP7x-232" vertex="1" connectable="0">
                    <mxGeometry y="26" width="180" height="100" as="geometry"/>
                </mxCell>
                <mxCell id="BVyFDoNeZoiz52lBJP7x-201" value="" style="rounded=0;whiteSpace=wrap;html=1;shadow=0;strokeColor=#d6b656;strokeWidth=1;fillColor=#fff2cc;fontSize=14;align=center;" parent="BVyFDoNeZoiz52lBJP7x-200" vertex="1">
                    <mxGeometry width="180" height="100" as="geometry"/>
                </mxCell>
                <mxCell id="BVyFDoNeZoiz52lBJP7x-202" value="" style="group;fillColor=#fff2cc;strokeColor=none;" parent="BVyFDoNeZoiz52lBJP7x-200" vertex="1" connectable="0">
                    <mxGeometry x="30" y="27" width="135" height="61.549999999999955" as="geometry"/>
                </mxCell>
                <mxCell id="BVyFDoNeZoiz52lBJP7x-203" value="" style="group;fillColor=#fff2cc;strokeColor=none;" parent="BVyFDoNeZoiz52lBJP7x-202" vertex="1" connectable="0">
                    <mxGeometry x="75" y="1.5499999999999545" width="60" height="60" as="geometry"/>
                </mxCell>
                <mxCell id="BVyFDoNeZoiz52lBJP7x-204" value="" style="ellipse;whiteSpace=wrap;html=1;aspect=fixed;shadow=0;strokeColor=none;strokeWidth=1;fillColor=#2E3233;fontSize=14;align=left;" parent="BVyFDoNeZoiz52lBJP7x-203" vertex="1">
                    <mxGeometry y="-1.549999999999886" width="60" height="60" as="geometry"/>
                </mxCell>
                <mxCell id="BVyFDoNeZoiz52lBJP7x-205" value="" style="html=1;verticalLabelPosition=bottom;align=center;labelBackgroundColor=#ffffff;verticalAlign=top;strokeWidth=2;strokeColor=#2E3233;shadow=0;dashed=0;shape=mxgraph.ios7.icons.data;fillColor=#fff2cc;fontSize=14;" parent="BVyFDoNeZoiz52lBJP7x-203" vertex="1">
                    <mxGeometry x="15" y="15" width="30" height="30" as="geometry"/>
                </mxCell>
                <mxCell id="BVyFDoNeZoiz52lBJP7x-206" value="" style="group" parent="BVyFDoNeZoiz52lBJP7x-202" vertex="1" connectable="0">
                    <mxGeometry x="-15" width="75" height="60" as="geometry"/>
                </mxCell>
                <mxCell id="BVyFDoNeZoiz52lBJP7x-207" value="" style="ellipse;whiteSpace=wrap;html=1;aspect=fixed;shadow=0;strokeColor=#2E3233;strokeWidth=1;fillColor=#2E3233;fontSize=14;align=left;" parent="BVyFDoNeZoiz52lBJP7x-206" vertex="1">
                    <mxGeometry width="60" height="60" as="geometry"/>
                </mxCell>
                <mxCell id="BVyFDoNeZoiz52lBJP7x-208" value="" style="group;fillColor=none;" parent="BVyFDoNeZoiz52lBJP7x-206" vertex="1" connectable="0">
                    <mxGeometry x="15" y="14" width="60" height="45.539999999999964" as="geometry"/>
                </mxCell>
                <mxCell id="BVyFDoNeZoiz52lBJP7x-209" value="" style="rounded=1;whiteSpace=wrap;html=1;shadow=0;strokeColor=none;strokeWidth=1;fillColor=#FFF2CC;fontSize=14;align=left;" parent="BVyFDoNeZoiz52lBJP7x-208" vertex="1">
                    <mxGeometry width="30" height="8.158323632130376" as="geometry"/>
                </mxCell>
                <mxCell id="BVyFDoNeZoiz52lBJP7x-210" value="" style="rounded=1;whiteSpace=wrap;html=1;shadow=0;strokeColor=#2E3233;strokeWidth=1;fillColor=#2E3233;fontSize=14;align=left;" parent="BVyFDoNeZoiz52lBJP7x-208" vertex="1">
                    <mxGeometry x="2.875" y="1.7450523864959249" width="1.5" height="5" as="geometry"/>
                </mxCell>
                <mxCell id="BVyFDoNeZoiz52lBJP7x-211" value="" style="rounded=1;whiteSpace=wrap;html=1;shadow=0;strokeColor=#2E3233;strokeWidth=1;fillColor=#2E3233;fontSize=14;align=left;" parent="BVyFDoNeZoiz52lBJP7x-208" vertex="1">
                    <mxGeometry x="7.625" y="1.7450523864959249" width="1.5" height="5" as="geometry"/>
                </mxCell>
                <mxCell id="BVyFDoNeZoiz52lBJP7x-212" value="" style="rounded=1;whiteSpace=wrap;html=1;shadow=0;strokeColor=#2E3233;strokeWidth=1;fillColor=#2E3233;fontSize=14;align=left;" parent="BVyFDoNeZoiz52lBJP7x-208" vertex="1">
                    <mxGeometry x="12.375" y="1.7450523864959249" width="1.5" height="5" as="geometry"/>
                </mxCell>
                <mxCell id="BVyFDoNeZoiz52lBJP7x-213" value="" style="rounded=1;whiteSpace=wrap;html=1;shadow=0;strokeColor=#2E3233;strokeWidth=1;fillColor=#2E3233;fontSize=14;align=left;" parent="BVyFDoNeZoiz52lBJP7x-208" vertex="1">
                    <mxGeometry x="16.9375" y="1.7450523864959249" width="1.5" height="5" as="geometry"/>
                </mxCell>
                <mxCell id="BVyFDoNeZoiz52lBJP7x-214" value="" style="ellipse;whiteSpace=wrap;html=1;aspect=fixed;shadow=0;strokeColor=#2E3233;strokeWidth=1;fillColor=#2E3233;fontSize=14;align=left;" parent="BVyFDoNeZoiz52lBJP7x-208" vertex="1">
                    <mxGeometry x="25" y="1.7450523864959249" width="2.5" height="2.5" as="geometry"/>
                </mxCell>
                <mxCell id="BVyFDoNeZoiz52lBJP7x-215" value="" style="rounded=1;whiteSpace=wrap;html=1;shadow=0;strokeColor=none;strokeWidth=1;fillColor=#FFF2CC;fontSize=14;align=left;" parent="BVyFDoNeZoiz52lBJP7x-208" vertex="1">
                    <mxGeometry y="11.92" width="30" height="8.16" as="geometry"/>
                </mxCell>
                <mxCell id="BVyFDoNeZoiz52lBJP7x-216" value="" style="rounded=1;whiteSpace=wrap;html=1;shadow=0;strokeColor=#2E3233;strokeWidth=1;fillColor=#2E3233;fontSize=14;align=left;" parent="BVyFDoNeZoiz52lBJP7x-208" vertex="1">
                    <mxGeometry x="2.875" y="13.66589057043072" width="1.5" height="5" as="geometry"/>
                </mxCell>
                <mxCell id="BVyFDoNeZoiz52lBJP7x-217" value="" style="rounded=1;whiteSpace=wrap;html=1;shadow=0;strokeColor=#2E3233;strokeWidth=1;fillColor=#2E3233;fontSize=14;align=left;" parent="BVyFDoNeZoiz52lBJP7x-208" vertex="1">
                    <mxGeometry x="7.625" y="13.66589057043072" width="1.5" height="5" as="geometry"/>
                </mxCell>
                <mxCell id="BVyFDoNeZoiz52lBJP7x-218" value="" style="rounded=1;whiteSpace=wrap;html=1;shadow=0;strokeColor=#2E3233;strokeWidth=1;fillColor=#2E3233;fontSize=14;align=left;" parent="BVyFDoNeZoiz52lBJP7x-208" vertex="1">
                    <mxGeometry x="12.375" y="13.66589057043072" width="1.5" height="5" as="geometry"/>
                </mxCell>
                <mxCell id="BVyFDoNeZoiz52lBJP7x-219" value="" style="rounded=1;whiteSpace=wrap;html=1;shadow=0;strokeColor=#2E3233;strokeWidth=1;fillColor=#2E3233;fontSize=14;align=left;" parent="BVyFDoNeZoiz52lBJP7x-208" vertex="1">
                    <mxGeometry x="16.9375" y="13.66589057043072" width="1.5" height="5" as="geometry"/>
                </mxCell>
                <mxCell id="BVyFDoNeZoiz52lBJP7x-220" value="" style="rounded=1;whiteSpace=wrap;html=1;shadow=0;strokeColor=none;strokeWidth=1;fillColor=#FFF2CC;fontSize=14;align=left;" parent="BVyFDoNeZoiz52lBJP7x-208" vertex="1">
                    <mxGeometry y="23.841676367869592" width="30" height="8.158323632130376" as="geometry"/>
                </mxCell>
                <mxCell id="BVyFDoNeZoiz52lBJP7x-221" value="" style="rounded=1;whiteSpace=wrap;html=1;shadow=0;strokeColor=#2E3233;strokeWidth=1;fillColor=#2E3233;fontSize=14;align=left;" parent="BVyFDoNeZoiz52lBJP7x-208" vertex="1">
                    <mxGeometry x="2.875" y="25.586728754365517" width="1.5" height="5" as="geometry"/>
                </mxCell>
                <mxCell id="BVyFDoNeZoiz52lBJP7x-222" value="" style="rounded=1;whiteSpace=wrap;html=1;shadow=0;strokeColor=#2E3233;strokeWidth=1;fillColor=#2E3233;fontSize=14;align=left;" parent="BVyFDoNeZoiz52lBJP7x-208" vertex="1">
                    <mxGeometry x="7.625" y="25.586728754365517" width="1.5" height="5" as="geometry"/>
                </mxCell>
                <mxCell id="BVyFDoNeZoiz52lBJP7x-223" value="" style="rounded=1;whiteSpace=wrap;html=1;shadow=0;strokeColor=#2E3233;strokeWidth=1;fillColor=#2E3233;fontSize=14;align=left;" parent="BVyFDoNeZoiz52lBJP7x-208" vertex="1">
                    <mxGeometry x="12.375" y="25.586728754365517" width="1.5" height="5" as="geometry"/>
                </mxCell>
                <mxCell id="BVyFDoNeZoiz52lBJP7x-224" value="" style="rounded=1;whiteSpace=wrap;html=1;shadow=0;strokeColor=#2E3233;strokeWidth=1;fillColor=#2E3233;fontSize=14;align=left;" parent="BVyFDoNeZoiz52lBJP7x-208" vertex="1">
                    <mxGeometry x="16.9375" y="25.586728754365517" width="1.5" height="5" as="geometry"/>
                </mxCell>
                <mxCell id="BVyFDoNeZoiz52lBJP7x-225" value="" style="rounded=0;whiteSpace=wrap;html=1;shadow=0;strokeColor=none;strokeWidth=1;fillColor=#2E3233;fontSize=14;align=left;" parent="BVyFDoNeZoiz52lBJP7x-202" vertex="1">
                    <mxGeometry x="42" y="24" width="38" height="12" as="geometry"/>
                </mxCell>
                <mxCell id="BVyFDoNeZoiz52lBJP7x-227" value="&lt;font style=&quot;font-size: 14px&quot;&gt;GHES Replica&lt;/font&gt;" style="text;html=1;strokeColor=none;fillColor=none;align=center;verticalAlign=middle;whiteSpace=wrap;rounded=0;fontColor=#2E3233;fontFamily=Verdana;fontStyle=1;fontSize=18;" parent="BVyFDoNeZoiz52lBJP7x-200" vertex="1">
                    <mxGeometry width="180" height="20" as="geometry"/>
                </mxCell>
                <mxCell id="BVyFDoNeZoiz52lBJP7x-229" value="&lt;font style=&quot;font-size: 14px&quot;&gt;AZ: B&lt;/font&gt;" style="text;html=1;strokeColor=none;fillColor=none;align=left;verticalAlign=middle;whiteSpace=wrap;rounded=0;fontColor=#FF9933;fontFamily=Verdana;fontStyle=1;fontSize=14;" parent="BVyFDoNeZoiz52lBJP7x-232" vertex="1">
                    <mxGeometry width="180" height="20" as="geometry"/>
                </mxCell>
                <mxCell id="BVyFDoNeZoiz52lBJP7x-239" value="" style="group" parent="1" vertex="1" connectable="0">
                    <mxGeometry x="1820" y="54" width="180" height="125" as="geometry"/>
                </mxCell>
                <mxCell id="BVyFDoNeZoiz52lBJP7x-50" value="" style="group" parent="BVyFDoNeZoiz52lBJP7x-239" vertex="1" connectable="0">
                    <mxGeometry y="25" width="180" height="100" as="geometry"/>
                </mxCell>
                <mxCell id="BVyFDoNeZoiz52lBJP7x-2" value="" style="rounded=0;whiteSpace=wrap;html=1;shadow=0;strokeColor=none;strokeWidth=1;fillColor=#ff7850;fontSize=14;align=left;" parent="BVyFDoNeZoiz52lBJP7x-50" vertex="1">
                    <mxGeometry y="1" width="180" height="100" as="geometry"/>
                </mxCell>
                <mxCell id="BVyFDoNeZoiz52lBJP7x-48" value="" style="group" parent="BVyFDoNeZoiz52lBJP7x-50" vertex="1" connectable="0">
                    <mxGeometry x="30" y="27" width="135" height="61.549999999999955" as="geometry"/>
                </mxCell>
                <mxCell id="BVyFDoNeZoiz52lBJP7x-6" value="" style="group" parent="BVyFDoNeZoiz52lBJP7x-48" vertex="1" connectable="0">
                    <mxGeometry x="75" y="1.5499999999999545" width="60" height="60" as="geometry"/>
                </mxCell>
                <mxCell id="BVyFDoNeZoiz52lBJP7x-7" value="" style="ellipse;whiteSpace=wrap;html=1;aspect=fixed;shadow=0;strokeColor=#2E3233;strokeWidth=1;fillColor=#2E3233;fontSize=14;align=left;" parent="BVyFDoNeZoiz52lBJP7x-6" vertex="1">
                    <mxGeometry y="-1.549999999999886" width="60" height="60" as="geometry"/>
                </mxCell>
                <mxCell id="BVyFDoNeZoiz52lBJP7x-8" value="" style="html=1;verticalLabelPosition=bottom;align=center;labelBackgroundColor=#ffffff;verticalAlign=top;strokeWidth=2;strokeColor=#2E3233;shadow=0;dashed=0;shape=mxgraph.ios7.icons.data;fillColor=#FF7850;fontSize=14;" parent="BVyFDoNeZoiz52lBJP7x-6" vertex="1">
                    <mxGeometry x="15" y="15" width="30" height="30" as="geometry"/>
                </mxCell>
                <mxCell id="BVyFDoNeZoiz52lBJP7x-9" value="" style="group" parent="BVyFDoNeZoiz52lBJP7x-48" vertex="1" connectable="0">
                    <mxGeometry x="-15" width="75" height="60" as="geometry"/>
                </mxCell>
                <mxCell id="BVyFDoNeZoiz52lBJP7x-10" value="" style="ellipse;whiteSpace=wrap;html=1;aspect=fixed;shadow=0;strokeColor=#2E3233;strokeWidth=1;fillColor=#2E3233;fontSize=14;align=left;" parent="BVyFDoNeZoiz52lBJP7x-9" vertex="1">
                    <mxGeometry width="60" height="60" as="geometry"/>
                </mxCell>
                <mxCell id="BVyFDoNeZoiz52lBJP7x-11" value="" style="group;fillColor=none;" parent="BVyFDoNeZoiz52lBJP7x-9" vertex="1" connectable="0">
                    <mxGeometry x="15" y="14" width="60" height="45.539999999999964" as="geometry"/>
                </mxCell>
                <mxCell id="BVyFDoNeZoiz52lBJP7x-12" value="" style="rounded=1;whiteSpace=wrap;html=1;shadow=0;strokeColor=none;strokeWidth=1;fillColor=#FF7850;fontSize=14;align=left;" parent="BVyFDoNeZoiz52lBJP7x-11" vertex="1">
                    <mxGeometry width="30" height="8.158323632130376" as="geometry"/>
                </mxCell>
                <mxCell id="BVyFDoNeZoiz52lBJP7x-13" value="" style="rounded=1;whiteSpace=wrap;html=1;shadow=0;strokeColor=#2E3233;strokeWidth=1;fillColor=#2E3233;fontSize=14;align=left;" parent="BVyFDoNeZoiz52lBJP7x-11" vertex="1">
                    <mxGeometry x="2.875" y="1.7450523864959249" width="1.5" height="5" as="geometry"/>
                </mxCell>
                <mxCell id="BVyFDoNeZoiz52lBJP7x-14" value="" style="rounded=1;whiteSpace=wrap;html=1;shadow=0;strokeColor=#2E3233;strokeWidth=1;fillColor=#2E3233;fontSize=14;align=left;" parent="BVyFDoNeZoiz52lBJP7x-11" vertex="1">
                    <mxGeometry x="7.625" y="1.7450523864959249" width="1.5" height="5" as="geometry"/>
                </mxCell>
                <mxCell id="BVyFDoNeZoiz52lBJP7x-15" value="" style="rounded=1;whiteSpace=wrap;html=1;shadow=0;strokeColor=#2E3233;strokeWidth=1;fillColor=#2E3233;fontSize=14;align=left;" parent="BVyFDoNeZoiz52lBJP7x-11" vertex="1">
                    <mxGeometry x="12.375" y="1.7450523864959249" width="1.5" height="5" as="geometry"/>
                </mxCell>
                <mxCell id="BVyFDoNeZoiz52lBJP7x-16" value="" style="rounded=1;whiteSpace=wrap;html=1;shadow=0;strokeColor=#2E3233;strokeWidth=1;fillColor=#2E3233;fontSize=14;align=left;" parent="BVyFDoNeZoiz52lBJP7x-11" vertex="1">
                    <mxGeometry x="16.9375" y="1.7450523864959249" width="1.5" height="5" as="geometry"/>
                </mxCell>
                <mxCell id="BVyFDoNeZoiz52lBJP7x-17" value="" style="ellipse;whiteSpace=wrap;html=1;aspect=fixed;shadow=0;strokeColor=#2E3233;strokeWidth=1;fillColor=#2E3233;fontSize=14;align=left;" parent="BVyFDoNeZoiz52lBJP7x-11" vertex="1">
                    <mxGeometry x="25" y="1.7450523864959249" width="2.5" height="2.5" as="geometry"/>
                </mxCell>
                <mxCell id="BVyFDoNeZoiz52lBJP7x-18" value="" style="rounded=1;whiteSpace=wrap;html=1;shadow=0;strokeColor=none;strokeWidth=1;fillColor=#FF7850;fontSize=14;align=left;" parent="BVyFDoNeZoiz52lBJP7x-11" vertex="1">
                    <mxGeometry y="11.92" width="30" height="8.16" as="geometry"/>
                </mxCell>
                <mxCell id="BVyFDoNeZoiz52lBJP7x-19" value="" style="rounded=1;whiteSpace=wrap;html=1;shadow=0;strokeColor=#2E3233;strokeWidth=1;fillColor=#2E3233;fontSize=14;align=left;" parent="BVyFDoNeZoiz52lBJP7x-11" vertex="1">
                    <mxGeometry x="2.875" y="13.66589057043072" width="1.5" height="5" as="geometry"/>
                </mxCell>
                <mxCell id="BVyFDoNeZoiz52lBJP7x-20" value="" style="rounded=1;whiteSpace=wrap;html=1;shadow=0;strokeColor=#2E3233;strokeWidth=1;fillColor=#2E3233;fontSize=14;align=left;" parent="BVyFDoNeZoiz52lBJP7x-11" vertex="1">
                    <mxGeometry x="7.625" y="13.66589057043072" width="1.5" height="5" as="geometry"/>
                </mxCell>
                <mxCell id="BVyFDoNeZoiz52lBJP7x-21" value="" style="rounded=1;whiteSpace=wrap;html=1;shadow=0;strokeColor=#2E3233;strokeWidth=1;fillColor=#2E3233;fontSize=14;align=left;" parent="BVyFDoNeZoiz52lBJP7x-11" vertex="1">
                    <mxGeometry x="12.375" y="13.66589057043072" width="1.5" height="5" as="geometry"/>
                </mxCell>
                <mxCell id="BVyFDoNeZoiz52lBJP7x-22" value="" style="rounded=1;whiteSpace=wrap;html=1;shadow=0;strokeColor=#2E3233;strokeWidth=1;fillColor=#2E3233;fontSize=14;align=left;" parent="BVyFDoNeZoiz52lBJP7x-11" vertex="1">
                    <mxGeometry x="16.9375" y="13.66589057043072" width="1.5" height="5" as="geometry"/>
                </mxCell>
                <mxCell id="BVyFDoNeZoiz52lBJP7x-23" value="" style="rounded=1;whiteSpace=wrap;html=1;shadow=0;strokeColor=none;strokeWidth=1;fillColor=#FF7850;fontSize=14;align=left;" parent="BVyFDoNeZoiz52lBJP7x-11" vertex="1">
                    <mxGeometry y="23.841676367869592" width="30" height="8.158323632130376" as="geometry"/>
                </mxCell>
                <mxCell id="BVyFDoNeZoiz52lBJP7x-24" value="" style="rounded=1;whiteSpace=wrap;html=1;shadow=0;strokeColor=#2E3233;strokeWidth=1;fillColor=#2E3233;fontSize=14;align=left;" parent="BVyFDoNeZoiz52lBJP7x-11" vertex="1">
                    <mxGeometry x="2.875" y="25.586728754365517" width="1.5" height="5" as="geometry"/>
                </mxCell>
                <mxCell id="BVyFDoNeZoiz52lBJP7x-25" value="" style="rounded=1;whiteSpace=wrap;html=1;shadow=0;strokeColor=#2E3233;strokeWidth=1;fillColor=#2E3233;fontSize=14;align=left;" parent="BVyFDoNeZoiz52lBJP7x-11" vertex="1">
                    <mxGeometry x="7.625" y="25.586728754365517" width="1.5" height="5" as="geometry"/>
                </mxCell>
                <mxCell id="BVyFDoNeZoiz52lBJP7x-26" value="" style="rounded=1;whiteSpace=wrap;html=1;shadow=0;strokeColor=#2E3233;strokeWidth=1;fillColor=#2E3233;fontSize=14;align=left;" parent="BVyFDoNeZoiz52lBJP7x-11" vertex="1">
                    <mxGeometry x="12.375" y="25.586728754365517" width="1.5" height="5" as="geometry"/>
                </mxCell>
                <mxCell id="BVyFDoNeZoiz52lBJP7x-27" value="" style="rounded=1;whiteSpace=wrap;html=1;shadow=0;strokeColor=#2E3233;strokeWidth=1;fillColor=#2E3233;fontSize=14;align=left;" parent="BVyFDoNeZoiz52lBJP7x-11" vertex="1">
                    <mxGeometry x="16.9375" y="25.586728754365517" width="1.5" height="5" as="geometry"/>
                </mxCell>
                <mxCell id="BVyFDoNeZoiz52lBJP7x-40" value="" style="rounded=0;whiteSpace=wrap;html=1;shadow=0;strokeColor=none;strokeWidth=1;fillColor=#2E3233;fontSize=14;align=left;" parent="BVyFDoNeZoiz52lBJP7x-48" vertex="1">
                    <mxGeometry x="42" y="24" width="38" height="12" as="geometry"/>
                </mxCell>
                <mxCell id="BVyFDoNeZoiz52lBJP7x-198" value="&lt;font style=&quot;font-size: 14px&quot;&gt;Cold Backup&lt;/font&gt;" style="text;html=1;strokeColor=none;fillColor=none;align=center;verticalAlign=middle;whiteSpace=wrap;rounded=0;fontColor=#2E3233;fontFamily=Verdana;fontStyle=1;fontSize=14;" parent="BVyFDoNeZoiz52lBJP7x-50" vertex="1">
                    <mxGeometry width="180" height="20" as="geometry"/>
                </mxCell>
                <mxCell id="BVyFDoNeZoiz52lBJP7x-236" value="&lt;font style=&quot;font-size: 14px&quot; color=&quot;#ff7850&quot;&gt;AZ: C&lt;/font&gt;" style="text;html=1;strokeColor=none;fillColor=none;align=left;verticalAlign=middle;whiteSpace=wrap;rounded=0;fontColor=#2E3233;fontFamily=Verdana;fontStyle=1;fontSize=14;" parent="BVyFDoNeZoiz52lBJP7x-239" vertex="1">
                    <mxGeometry width="180" height="20" as="geometry"/>
                </mxCell>
                <mxCell id="BVyFDoNeZoiz52lBJP7x-246" style="rounded=1;orthogonalLoop=1;jettySize=auto;html=1;fontFamily=Verdana;fontSize=14;fontColor=#7C7A7A;strokeWidth=9;endArrow=block;endFill=1;strokeColor=#7C7A7A;" parent="1" source="BVyFDoNeZoiz52lBJP7x-251" target="BVyFDoNeZoiz52lBJP7x-53" edge="1">
                    <mxGeometry relative="1" as="geometry">
                        <mxPoint x="1379.2446708229827" y="193.79177384660784" as="sourcePoint"/>
                        <Array as="points">
                            <mxPoint x="1400" y="210"/>
                            <mxPoint x="1420" y="129"/>
                        </Array>
                    </mxGeometry>
                </mxCell>
                <mxCell id="BVyFDoNeZoiz52lBJP7x-247" style="edgeStyle=none;rounded=1;orthogonalLoop=1;jettySize=auto;html=1;entryX=0;entryY=0.5;entryDx=0;entryDy=0;endArrow=block;endFill=1;strokeColor=#7C7A7A;strokeWidth=9;fontFamily=Verdana;fontSize=14;fontColor=#7C7A7A;dashed=1;dashPattern=1 1;" parent="1" source="BVyFDoNeZoiz52lBJP7x-251" target="BVyFDoNeZoiz52lBJP7x-201" edge="1">
                    <mxGeometry relative="1" as="geometry">
                        <mxPoint x="1379.3098446319661" y="226.1062647657966" as="sourcePoint"/>
                        <Array as="points">
                            <mxPoint x="1400" y="210"/>
                            <mxPoint x="1420" y="290"/>
                        </Array>
                    </mxGeometry>
                </mxCell>
                <mxCell id="BVyFDoNeZoiz52lBJP7x-248" style="edgeStyle=none;rounded=0;orthogonalLoop=1;jettySize=auto;html=1;entryX=0.5;entryY=0;entryDx=0;entryDy=0;endArrow=none;endFill=0;strokeColor=#7C7A7A;strokeWidth=9;fontFamily=Verdana;fontSize=14;fontColor=#7C7A7A;" parent="1" source="BVyFDoNeZoiz52lBJP7x-251" target="BVyFDoNeZoiz52lBJP7x-145" edge="1">
                    <mxGeometry relative="1" as="geometry">
                        <mxPoint x="1324" y="210" as="sourcePoint"/>
                    </mxGeometry>
                </mxCell>
                <mxCell id="BVyFDoNeZoiz52lBJP7x-267" value="" style="group" parent="1" vertex="1" connectable="0">
                    <mxGeometry x="1310" y="140" width="80" height="100" as="geometry"/>
                </mxCell>
                <mxCell id="BVyFDoNeZoiz52lBJP7x-265" value="&lt;b&gt;Load &lt;br&gt;Balancer&lt;/b&gt;" style="text;html=1;align=center;verticalAlign=middle;resizable=0;points=[];autosize=1;fontSize=14;fontFamily=Verdana;fontColor=#7C7A7A;" parent="BVyFDoNeZoiz52lBJP7x-267" vertex="1">
                    <mxGeometry width="80" height="40" as="geometry"/>
                </mxCell>
                <mxCell id="BVyFDoNeZoiz52lBJP7x-266" value="" style="group" parent="BVyFDoNeZoiz52lBJP7x-267" vertex="1" connectable="0">
                    <mxGeometry x="10" y="40" width="60" height="60" as="geometry"/>
                </mxCell>
                <mxCell id="BVyFDoNeZoiz52lBJP7x-250" value="" style="group" parent="BVyFDoNeZoiz52lBJP7x-266" vertex="1" connectable="0">
                    <mxGeometry width="60" height="60" as="geometry"/>
                </mxCell>
                <mxCell id="BVyFDoNeZoiz52lBJP7x-251" value="" style="ellipse;whiteSpace=wrap;html=1;aspect=fixed;shadow=0;strokeColor=none;strokeWidth=1;fillColor=#7C7A7A;fontSize=14;align=left;" parent="BVyFDoNeZoiz52lBJP7x-250" vertex="1">
                    <mxGeometry width="60" height="60" as="geometry"/>
                </mxCell>
                <mxCell id="BVyFDoNeZoiz52lBJP7x-261" style="edgeStyle=none;rounded=0;orthogonalLoop=1;jettySize=auto;html=1;entryX=0;entryY=1;entryDx=0;entryDy=0;endArrow=none;endFill=0;strokeColor=#7C7A7A;strokeWidth=9;fontFamily=Verdana;fontSize=14;fontColor=#7C7A7A;" parent="BVyFDoNeZoiz52lBJP7x-250" source="BVyFDoNeZoiz52lBJP7x-257" target="BVyFDoNeZoiz52lBJP7x-260" edge="1">
                    <mxGeometry relative="1" as="geometry"/>
                </mxCell>
                <mxCell id="BVyFDoNeZoiz52lBJP7x-262" style="edgeStyle=none;rounded=0;orthogonalLoop=1;jettySize=auto;html=1;endArrow=none;endFill=0;strokeColor=#2E3233;strokeWidth=2;fontFamily=Verdana;fontSize=14;fontColor=#7C7A7A;" parent="BVyFDoNeZoiz52lBJP7x-250" source="BVyFDoNeZoiz52lBJP7x-257" target="BVyFDoNeZoiz52lBJP7x-260" edge="1">
                    <mxGeometry relative="1" as="geometry"/>
                </mxCell>
                <mxCell id="BVyFDoNeZoiz52lBJP7x-264" style="edgeStyle=none;rounded=0;orthogonalLoop=1;jettySize=auto;html=1;endArrow=none;endFill=0;strokeColor=#2E3233;strokeWidth=2;fontFamily=Verdana;fontSize=14;fontColor=#7C7A7A;" parent="BVyFDoNeZoiz52lBJP7x-250" source="BVyFDoNeZoiz52lBJP7x-257" target="BVyFDoNeZoiz52lBJP7x-258" edge="1">
                    <mxGeometry relative="1" as="geometry"/>
                </mxCell>
                <mxCell id="BVyFDoNeZoiz52lBJP7x-257" value="" style="ellipse;whiteSpace=wrap;html=1;aspect=fixed;shadow=0;strokeColor=#2E3233;strokeWidth=1;fillColor=#2E3233;fontSize=14;align=left;" parent="BVyFDoNeZoiz52lBJP7x-250" vertex="1">
                    <mxGeometry x="9.910000000000082" y="25.9950523864959" width="10" height="10" as="geometry"/>
                </mxCell>
                <mxCell id="BVyFDoNeZoiz52lBJP7x-258" value="" style="ellipse;whiteSpace=wrap;html=1;aspect=fixed;shadow=0;strokeColor=#2E3233;strokeWidth=1;fillColor=#2E3233;fontSize=14;align=left;" parent="BVyFDoNeZoiz52lBJP7x-250" vertex="1">
                    <mxGeometry x="34" y="35.9950523864959" width="10" height="10" as="geometry"/>
                </mxCell>
                <mxCell id="BVyFDoNeZoiz52lBJP7x-260" value="" style="ellipse;whiteSpace=wrap;html=1;aspect=fixed;shadow=0;strokeColor=#2E3233;strokeWidth=1;fillColor=#2E3233;fontSize=14;align=left;" parent="BVyFDoNeZoiz52lBJP7x-250" vertex="1">
                    <mxGeometry x="34" y="15.9950523864959" width="10" height="10" as="geometry"/>
                </mxCell>
                <mxCell id="BVyFDoNeZoiz52lBJP7x-284" value="" style="group" parent="1" vertex="1" connectable="0">
                    <mxGeometry x="1149.4" y="60.625" width="90.59999999999991" height="298.75" as="geometry"/>
                </mxCell>
                <mxCell id="BVyFDoNeZoiz52lBJP7x-145" value="" style="rounded=0;whiteSpace=wrap;html=1;shadow=0;strokeColor=none;strokeWidth=1;fillColor=#84C2B4;fontSize=14;align=left;rotation=90;" parent="BVyFDoNeZoiz52lBJP7x-284" vertex="1">
                    <mxGeometry x="-103.7800000000002" y="104.375" width="298.75" height="90" as="geometry"/>
                </mxCell>
                <mxCell id="BVyFDoNeZoiz52lBJP7x-178" value="" style="ellipse;whiteSpace=wrap;html=1;aspect=fixed;shadow=0;strokeColor=#2E3233;strokeWidth=1;fillColor=#2E3233;fontSize=14;align=left;rotation=90;" parent="BVyFDoNeZoiz52lBJP7x-284" vertex="1">
                    <mxGeometry x="16.200000000000045" y="222.70500000000004" width="58.800000000000004" height="58.800000000000004" as="geometry"/>
                </mxCell>
                <mxCell id="BVyFDoNeZoiz52lBJP7x-151" value="" style="ellipse;whiteSpace=wrap;html=1;aspect=fixed;shadow=0;strokeColor=#2E3233;strokeWidth=1;fillColor=#2E3233;fontSize=14;align=left;rotation=90;" parent="BVyFDoNeZoiz52lBJP7x-284" vertex="1">
                    <mxGeometry x="16.199999999999818" y="34.785000000000025" width="58.800000000000004" height="58.800000000000004" as="geometry"/>
                </mxCell>
                <mxCell id="BVyFDoNeZoiz52lBJP7x-141" value="&lt;font size=&quot;1&quot; face=&quot;Tahoma&quot;&gt;&lt;b style=&quot;font-size: 16px&quot;&gt;&amp;gt;_&lt;/b&gt;&lt;/font&gt;" style="rounded=0;whiteSpace=wrap;html=1;fillColor=#84C2B4;fontFamily=arial;strokeColor=none;" parent="BVyFDoNeZoiz52lBJP7x-284" vertex="1">
                    <mxGeometry x="28.09999999999991" y="51.685" width="35" height="25" as="geometry"/>
                </mxCell>
                <mxCell id="BVyFDoNeZoiz52lBJP7x-148" value="" style="ellipse;whiteSpace=wrap;html=1;aspect=fixed;shadow=0;strokeColor=#2E3233;strokeWidth=1;fillColor=#2E3233;fontSize=14;align=left;rotation=90;" parent="BVyFDoNeZoiz52lBJP7x-284" vertex="1">
                    <mxGeometry x="16.199999999999818" y="126.84499999999997" width="58.800000000000004" height="58.800000000000004" as="geometry"/>
                </mxCell>
                <mxCell id="BVyFDoNeZoiz52lBJP7x-190" value="" style="group" parent="BVyFDoNeZoiz52lBJP7x-284" vertex="1" connectable="0">
                    <mxGeometry x="15.599999999999909" y="126.84499999999991" width="58.80000000000018" height="58.799999999999955" as="geometry"/>
                </mxCell>
                <mxCell id="BVyFDoNeZoiz52lBJP7x-189" value="" style="group" parent="BVyFDoNeZoiz52lBJP7x-190" vertex="1" connectable="0">
                    <mxGeometry x="12.400000000000091" y="16.000000000000114" width="35" height="27" as="geometry"/>
                </mxCell>
                <mxCell id="BVyFDoNeZoiz52lBJP7x-188" value="" style="rounded=0;whiteSpace=wrap;html=1;strokeColor=#84C2B4;fillColor=none;strokeWidth=2;" parent="BVyFDoNeZoiz52lBJP7x-189" vertex="1">
                    <mxGeometry x="1" y="2.74" width="33" height="23" as="geometry"/>
                </mxCell>
                <mxCell id="BVyFDoNeZoiz52lBJP7x-182" value="" style="rounded=1;whiteSpace=wrap;html=1;strokeColor=none;fillColor=#84C2B4;" parent="BVyFDoNeZoiz52lBJP7x-189" vertex="1">
                    <mxGeometry width="35" height="7" as="geometry"/>
                </mxCell>
                <mxCell id="BVyFDoNeZoiz52lBJP7x-183" value="" style="ellipse;whiteSpace=wrap;html=1;aspect=fixed;shadow=0;strokeColor=#2E3233;strokeWidth=1;fillColor=#2E3233;fontSize=14;align=left;" parent="BVyFDoNeZoiz52lBJP7x-189" vertex="1">
                    <mxGeometry x="10.486714883898081" y="2.969677059939725" width="2.023112504838211" height="2.023112504838211" as="geometry"/>
                </mxCell>
                <mxCell id="BVyFDoNeZoiz52lBJP7x-184" value="" style="ellipse;whiteSpace=wrap;html=1;aspect=fixed;shadow=0;strokeColor=#2E3233;strokeWidth=1;fillColor=#2E3233;fontSize=14;align=left;" parent="BVyFDoNeZoiz52lBJP7x-189" vertex="1">
                    <mxGeometry x="2.4383365055197004" y="2.969677059939725" width="2.023112504838211" height="2.023112504838211" as="geometry"/>
                </mxCell>
                <mxCell id="BVyFDoNeZoiz52lBJP7x-185" value="" style="ellipse;whiteSpace=wrap;html=1;aspect=fixed;shadow=0;strokeColor=#2E3233;strokeWidth=1;fillColor=#2E3233;fontSize=14;align=left;" parent="BVyFDoNeZoiz52lBJP7x-189" vertex="1">
                    <mxGeometry x="6.465093262276476" y="2.969677059939725" width="2.023112504838211" height="2.023112504838211" as="geometry"/>
                </mxCell>
                <mxCell id="BVyFDoNeZoiz52lBJP7x-186" value="" style="rounded=1;whiteSpace=wrap;html=1;shadow=0;strokeColor=#2E3233;strokeWidth=1;fillColor=#2E3233;fontSize=14;align=left;" parent="BVyFDoNeZoiz52lBJP7x-189" vertex="1">
                    <mxGeometry x="20" y="2.74" width="12" height="2.49" as="geometry"/>
                </mxCell>
                <mxCell id="BVyFDoNeZoiz52lBJP7x-197" value="" style="group" parent="BVyFDoNeZoiz52lBJP7x-284" vertex="1" connectable="0">
                    <mxGeometry x="30.59999999999991" y="235.745" width="30" height="33.15832363213036" as="geometry"/>
                </mxCell>
                <mxCell id="BVyFDoNeZoiz52lBJP7x-107" value="" style="rounded=1;whiteSpace=wrap;html=1;shadow=0;strokeColor=#84C2B4;strokeWidth=2;fillColor=none;fontSize=14;align=left;" parent="BVyFDoNeZoiz52lBJP7x-197" vertex="1">
                    <mxGeometry x="1.0000000000002274" width="28" height="22" as="geometry"/>
                </mxCell>
                <mxCell id="BVyFDoNeZoiz52lBJP7x-191" value="" style="rounded=1;whiteSpace=wrap;html=1;shadow=0;strokeColor=none;strokeWidth=1;fillColor=#84C2B4;fontSize=14;align=left;" parent="BVyFDoNeZoiz52lBJP7x-197" vertex="1">
                    <mxGeometry y="25" width="30" height="8.158323632130376" as="geometry"/>
                </mxCell>
                <mxCell id="BVyFDoNeZoiz52lBJP7x-192" value="" style="rounded=1;whiteSpace=wrap;html=1;shadow=0;strokeColor=#2E3233;strokeWidth=1;fillColor=#2E3233;fontSize=14;align=left;" parent="BVyFDoNeZoiz52lBJP7x-197" vertex="1">
                    <mxGeometry x="2.875" y="26.7450523864959" width="1.5" height="5" as="geometry"/>
                </mxCell>
                <mxCell id="BVyFDoNeZoiz52lBJP7x-193" value="" style="rounded=1;whiteSpace=wrap;html=1;shadow=0;strokeColor=#2E3233;strokeWidth=1;fillColor=#2E3233;fontSize=14;align=left;" parent="BVyFDoNeZoiz52lBJP7x-197" vertex="1">
                    <mxGeometry x="7.625" y="26.7450523864959" width="1.5" height="5" as="geometry"/>
                </mxCell>
                <mxCell id="BVyFDoNeZoiz52lBJP7x-194" value="" style="rounded=1;whiteSpace=wrap;html=1;shadow=0;strokeColor=#2E3233;strokeWidth=1;fillColor=#2E3233;fontSize=14;align=left;" parent="BVyFDoNeZoiz52lBJP7x-197" vertex="1">
                    <mxGeometry x="12.375" y="26.7450523864959" width="1.5" height="5" as="geometry"/>
                </mxCell>
                <mxCell id="BVyFDoNeZoiz52lBJP7x-195" value="" style="rounded=1;whiteSpace=wrap;html=1;shadow=0;strokeColor=#2E3233;strokeWidth=1;fillColor=#2E3233;fontSize=14;align=left;" parent="BVyFDoNeZoiz52lBJP7x-197" vertex="1">
                    <mxGeometry x="16.9375" y="26.7450523864959" width="1.5" height="5" as="geometry"/>
                </mxCell>
                <mxCell id="BVyFDoNeZoiz52lBJP7x-196" value="" style="ellipse;whiteSpace=wrap;html=1;aspect=fixed;shadow=0;strokeColor=#2E3233;strokeWidth=1;fillColor=#2E3233;fontSize=14;align=left;" parent="BVyFDoNeZoiz52lBJP7x-197" vertex="1">
                    <mxGeometry x="25" y="26.7450523864959" width="2.5" height="2.5" as="geometry"/>
                </mxCell>
                <mxCell id="BVyFDoNeZoiz52lBJP7x-280" value="&lt;font style=&quot;font-size: 14px&quot; color=&quot;#2e3233&quot;&gt;Git Client&lt;/font&gt;" style="text;html=1;strokeColor=none;fillColor=none;align=center;verticalAlign=middle;whiteSpace=wrap;rounded=0;fontColor=#7C7A7A;fontFamily=Verdana;fontStyle=0;fontSize=14;" parent="BVyFDoNeZoiz52lBJP7x-284" vertex="1">
                    <mxGeometry x="0.599999999999909" y="202.70500000000004" width="90" height="20" as="geometry"/>
                </mxCell>
                <mxCell id="BVyFDoNeZoiz52lBJP7x-282" value="&lt;font style=&quot;font-size: 14px&quot; color=&quot;#2e3233&quot;&gt;Browser&lt;/font&gt;" style="text;html=1;strokeColor=none;fillColor=none;align=center;verticalAlign=middle;whiteSpace=wrap;rounded=0;fontColor=#7C7A7A;fontFamily=Verdana;fontStyle=0;fontSize=14;" parent="BVyFDoNeZoiz52lBJP7x-284" vertex="1">
                    <mxGeometry x="0.599999999999909" y="106.84500000000003" width="90" height="20" as="geometry"/>
                </mxCell>
                <mxCell id="BVyFDoNeZoiz52lBJP7x-283" value="&lt;font style=&quot;font-size: 14px&quot; color=&quot;#2e3233&quot;&gt;Terminal&lt;/font&gt;" style="text;html=1;strokeColor=none;fillColor=none;align=center;verticalAlign=middle;whiteSpace=wrap;rounded=0;fontColor=#7C7A7A;fontFamily=Verdana;fontStyle=0;fontSize=14;" parent="BVyFDoNeZoiz52lBJP7x-284" vertex="1">
                    <mxGeometry y="14.785000000000053" width="90" height="20" as="geometry"/>
                </mxCell>
                <mxCell id="BVyFDoNeZoiz52lBJP7x-288" style="edgeStyle=none;rounded=1;orthogonalLoop=1;jettySize=auto;html=1;exitX=1;exitY=0.5;exitDx=0;exitDy=0;endArrow=block;endFill=1;strokeColor=#7C7A7A;strokeWidth=9;fontFamily=Verdana;fontSize=14;fontColor=#7C7A7A;" parent="1" source="BVyFDoNeZoiz52lBJP7x-53" target="BVyFDoNeZoiz52lBJP7x-2" edge="1">
                    <mxGeometry relative="1" as="geometry"/>
                </mxCell>
                <mxCell id="BVyFDoNeZoiz52lBJP7x-313" value="" style="group" parent="1" vertex="1" connectable="0">
                    <mxGeometry x="1700" y="99.69999999999999" width="60" height="60" as="geometry"/>
                </mxCell>
                <mxCell id="BVyFDoNeZoiz52lBJP7x-271" value="" style="group" parent="BVyFDoNeZoiz52lBJP7x-313" vertex="1" connectable="0">
                    <mxGeometry width="60" height="60" as="geometry"/>
                </mxCell>
                <mxCell id="BVyFDoNeZoiz52lBJP7x-272" value="" style="group" parent="BVyFDoNeZoiz52lBJP7x-271" vertex="1" connectable="0">
                    <mxGeometry width="60" height="60" as="geometry"/>
                </mxCell>
                <mxCell id="BVyFDoNeZoiz52lBJP7x-273" value="" style="ellipse;whiteSpace=wrap;html=1;aspect=fixed;shadow=0;strokeColor=none;strokeWidth=1;fillColor=#7C7A7A;fontSize=14;align=left;" parent="BVyFDoNeZoiz52lBJP7x-272" vertex="1">
                    <mxGeometry width="60" height="60" as="geometry"/>
                </mxCell>
                <mxCell id="BVyFDoNeZoiz52lBJP7x-310" value="" style="group;strokeColor=none;" parent="BVyFDoNeZoiz52lBJP7x-272" vertex="1" connectable="0">
                    <mxGeometry x="10" y="10" width="40" height="40" as="geometry"/>
                </mxCell>
                <mxCell id="BVyFDoNeZoiz52lBJP7x-299" value="" style="endArrow=none;html=1;strokeColor=#2E3233;strokeWidth=2;fontFamily=Verdana;fontSize=14;fontColor=#7C7A7A;" parent="BVyFDoNeZoiz52lBJP7x-310" edge="1">
                    <mxGeometry width="50" height="50" relative="1" as="geometry">
                        <mxPoint y="13.333333333333336" as="sourcePoint"/>
                        <mxPoint x="20" as="targetPoint"/>
                    </mxGeometry>
                </mxCell>
                <mxCell id="BVyFDoNeZoiz52lBJP7x-300" value="" style="endArrow=none;html=1;strokeColor=#2E3233;strokeWidth=2;fontFamily=Verdana;fontSize=14;fontColor=#7C7A7A;" parent="BVyFDoNeZoiz52lBJP7x-310" edge="1">
                    <mxGeometry width="50" height="50" relative="1" as="geometry">
                        <mxPoint x="40" y="13.333333333333336" as="sourcePoint"/>
                        <mxPoint x="20" as="targetPoint"/>
                    </mxGeometry>
                </mxCell>
                <mxCell id="BVyFDoNeZoiz52lBJP7x-301" value="" style="endArrow=none;html=1;strokeColor=#2E3233;strokeWidth=2;fontFamily=Verdana;fontSize=14;fontColor=#7C7A7A;" parent="BVyFDoNeZoiz52lBJP7x-310" edge="1">
                    <mxGeometry width="50" height="50" relative="1" as="geometry">
                        <mxPoint y="13.333333333333336" as="sourcePoint"/>
                        <mxPoint x="20" y="26.66666666666667" as="targetPoint"/>
                    </mxGeometry>
                </mxCell>
                <mxCell id="BVyFDoNeZoiz52lBJP7x-302" value="" style="endArrow=none;html=1;strokeColor=#2E3233;strokeWidth=2;fontFamily=Verdana;fontSize=14;fontColor=#7C7A7A;" parent="BVyFDoNeZoiz52lBJP7x-310" edge="1">
                    <mxGeometry width="50" height="50" relative="1" as="geometry">
                        <mxPoint x="20" y="26.66666666666667" as="sourcePoint"/>
                        <mxPoint x="40" y="13.333333333333336" as="targetPoint"/>
                    </mxGeometry>
                </mxCell>
                <mxCell id="BVyFDoNeZoiz52lBJP7x-303" value="" style="endArrow=none;html=1;strokeColor=#2E3233;strokeWidth=2;fontFamily=Verdana;fontSize=14;fontColor=#7C7A7A;" parent="BVyFDoNeZoiz52lBJP7x-310" edge="1">
                    <mxGeometry width="50" height="50" relative="1" as="geometry">
                        <mxPoint x="10" y="19.99999999999993" as="sourcePoint"/>
                        <mxPoint x="30" y="6.666666666666592" as="targetPoint"/>
                    </mxGeometry>
                </mxCell>
                <mxCell id="BVyFDoNeZoiz52lBJP7x-304" value="" style="endArrow=none;html=1;strokeColor=#2E3233;strokeWidth=2;fontFamily=Verdana;fontSize=14;fontColor=#7C7A7A;" parent="BVyFDoNeZoiz52lBJP7x-310" edge="1">
                    <mxGeometry width="50" height="50" relative="1" as="geometry">
                        <mxPoint x="40" y="26.66666666666667" as="sourcePoint"/>
                        <mxPoint x="40" y="13.333333333333336" as="targetPoint"/>
                    </mxGeometry>
                </mxCell>
                <mxCell id="BVyFDoNeZoiz52lBJP7x-305" value="" style="endArrow=none;html=1;strokeColor=#2E3233;strokeWidth=2;fontFamily=Verdana;fontSize=14;fontColor=#7C7A7A;" parent="BVyFDoNeZoiz52lBJP7x-310" edge="1">
                    <mxGeometry width="50" height="50" relative="1" as="geometry">
                        <mxPoint x="20" y="40" as="sourcePoint"/>
                        <mxPoint x="20" y="26.666666666666597" as="targetPoint"/>
                    </mxGeometry>
                </mxCell>
                <mxCell id="BVyFDoNeZoiz52lBJP7x-306" value="" style="endArrow=none;html=1;strokeColor=#2E3233;strokeWidth=2;fontFamily=Verdana;fontSize=14;fontColor=#7C7A7A;" parent="BVyFDoNeZoiz52lBJP7x-310" edge="1">
                    <mxGeometry width="50" height="50" relative="1" as="geometry">
                        <mxPoint y="26.66666666666667" as="sourcePoint"/>
                        <mxPoint y="13.333333333333258" as="targetPoint"/>
                    </mxGeometry>
                </mxCell>
                <mxCell id="BVyFDoNeZoiz52lBJP7x-307" value="" style="endArrow=none;html=1;strokeColor=#2E3233;strokeWidth=2;fontFamily=Verdana;fontSize=14;fontColor=#7C7A7A;" parent="BVyFDoNeZoiz52lBJP7x-310" edge="1">
                    <mxGeometry width="50" height="50" relative="1" as="geometry">
                        <mxPoint y="26.666666666666597" as="sourcePoint"/>
                        <mxPoint x="20" y="39.99999999999993" as="targetPoint"/>
                    </mxGeometry>
                </mxCell>
                <mxCell id="BVyFDoNeZoiz52lBJP7x-308" value="" style="endArrow=none;html=1;strokeColor=#2E3233;strokeWidth=2;fontFamily=Verdana;fontSize=14;fontColor=#7C7A7A;" parent="BVyFDoNeZoiz52lBJP7x-310" edge="1">
                    <mxGeometry width="50" height="50" relative="1" as="geometry">
                        <mxPoint x="20" y="39.99999999999993" as="sourcePoint"/>
                        <mxPoint x="40" y="26.666666666666597" as="targetPoint"/>
                    </mxGeometry>
                </mxCell>
                <mxCell id="BVyFDoNeZoiz52lBJP7x-314" value="&lt;font style=&quot;font-size: 14px&quot; color=&quot;#7c7a7a&quot;&gt;Backup-Utils&lt;/font&gt;" style="text;html=1;strokeColor=none;fillColor=none;align=center;verticalAlign=middle;whiteSpace=wrap;rounded=0;fontColor=#2E3233;fontFamily=Verdana;fontStyle=1;fontSize=18;" parent="1" vertex="1">
                    <mxGeometry x="1660" y="70" width="140" height="20" as="geometry"/>
                </mxCell>
                <mxCell id="FuvqqiIyMVW5rEO_OXd7-1" value="&lt;font style=&quot;font-size: 14px&quot;&gt;Local Host&lt;/font&gt;" style="text;html=1;strokeColor=none;fillColor=none;align=center;verticalAlign=middle;whiteSpace=wrap;rounded=0;fontColor=#84C2B4;fontFamily=Verdana;fontStyle=1;fontSize=14;" parent="1" vertex="1">
                    <mxGeometry x="1149.4" y="34" width="90.6" height="20" as="geometry"/>
                </mxCell>
            </root>
        </mxGraphModel>
    </diagram>
</mxfile>